<svg id="Layer_1" data-name="Layer 1" xmlns="http://www.w3.org/2000/svg" viewBox="0 0 157.09 301.26"><defs><style>.cls-1{fill:#7db3b3;}</style></defs><path class="cls-1" d="M125,156.85a39.7,39.7,0,0,1-39.66-39.66,6.79,6.79,0,0,0-13.57,0A39.7,39.7,0,0,1,32.1,156.85a6.79,6.79,0,1,0,0,13.57,39.7,39.7,0,0,1,39.66,39.66,6.79,6.79,0,1,0,13.57,0A39.7,39.7,0,0,1,125,170.42a6.79,6.79,0,0,0,0-13.57Z"/><path class="cls-1" d="M62.27,22.64A19.36,19.36,0,0,1,42.94,3.31a3.31,3.31,0,1,0-6.62,0A19.35,19.35,0,0,1,17,22.64a3.31,3.31,0,1,0,0,6.61A19.35,19.35,0,0,1,36.32,48.58a3.31,3.31,0,1,0,6.62,0A19.35,19.35,0,0,1,62.27,29.25a3.31,3.31,0,1,0,0-6.61Z"/><path class="cls-1" d="M150.94,61.3a29.79,29.79,0,0,1-29.75-29.75,5.09,5.09,0,0,0-10.18,0A29.78,29.78,0,0,1,81.27,61.3a5.09,5.09,0,1,0,0,10.17A29.78,29.78,0,0,1,111,101.22a5.09,5.09,0,0,0,10.18,0,29.79,29.79,0,0,1,29.75-29.75,5.09,5.09,0,1,0,0-10.17Z"/><path class="cls-1" d="M128.88,96.15c-1.52,3-3.59,14,.46,20.38h0a64.29,64.29,0,0,1,13.85,39.9c0,.17,0,.33,0,.5s0,.54,0,.81c0,.44,0,.88,0,1.31V276a11.36,11.36,0,0,1-11.35,11.34H92.44V262.47a13.9,13.9,0,0,0-13.9-13.9h-37A2.58,2.58,0,0,1,38.93,246V222.43A13.9,13.9,0,0,0,25,208.53H13.9V159.07c0-.44,0-.88,0-1.32l0-.85c0-.16,0-.31,0-.47a64.62,64.62,0,0,1,90.34-59.3,23.37,23.37,0,0,0-19.42-19c-2.08-.16-4.16-.27-6.28-.27A78.54,78.54,0,0,0,0,156.43c0,.53,0,1.06,0,1.58H0v57.73a6.69,6.69,0,0,0,6.69,6.69H25V246A16.47,16.47,0,0,0,41.5,262.47h37v31.42a7.37,7.37,0,0,0,7.38,7.37h45.92A25.25,25.25,0,0,0,157.09,276V158h0c0-.52,0-1,0-1.58A78.36,78.36,0,0,0,128.88,96.15Z"/></svg>